<svg width="38.000000" height="38.000000" viewBox="0 0 38 38" fill="none" xmlns="http://www.w3.org/2000/svg" xmlns:xlink="http://www.w3.org/1999/xlink">
	<desc>
			Created with Pixso.
	</desc>
	<defs>
		<clipPath id="clip122_1443">
			<rect id="facebook 1" width="38.000000" height="38.000000" fill="white" fill-opacity="0"/>
		</clipPath>
	</defs>
	<rect id="facebook 1" width="38.000000" height="38.000000" fill="#FFFFFF" fill-opacity="0"/>
	<g clip-path="url(#clip122_1443)">
		<path id="Vector" d="M19 0C29.4941 0 38 8.50726 38 19.0001C38 29.4941 29.4941 38 19 38C8.50586 38 0 29.494 0 19.0001C0 8.50726 8.50586 0 19 0Z" fill="#3B5998" fill-opacity="1.000000" fill-rule="nonzero"/>
		<path id="Vector" d="M21.3125 13.0803L23.7617 13.0803L23.7617 9.46313L20.8828 9.46313L20.8828 9.4762C17.3955 9.59973 16.6807 11.5602 16.6172 13.6194L16.6104 13.6194L16.6104 15.4256L14.2354 15.4256L14.2354 18.9678L16.6104 18.9678L16.6104 28.4631L20.1895 28.4631L20.1895 18.9678L23.1211 18.9678L23.6875 15.4256L20.1904 15.4256L20.1904 14.3344C20.1904 13.6384 20.6533 13.0803 21.3125 13.0803Z" fill="#FFFFFF" fill-opacity="1.000000" fill-rule="nonzero"/>
	</g>
</svg>
