<svg width="38.000000" height="38.000000" viewBox="0 0 38 38" fill="none" xmlns="http://www.w3.org/2000/svg" xmlns:xlink="http://www.w3.org/1999/xlink">
	<desc>
			Created with Pixso.
	</desc>
	<defs>
		<clipPath id="clip122_1450">
			<rect id="instagram 2" width="38.000000" height="38.000000" fill="white" fill-opacity="0"/>
		</clipPath>
		<linearGradient id="paint_linear_122_1451_0" x1="2.447392" y1="35.572861" x2="35.562252" y2="2.462070" gradientUnits="userSpaceOnUse">
			<stop stop-color="#FFDD55"/>
			<stop offset="0.500000" stop-color="#FF543E"/>
			<stop offset="1.000000" stop-color="#C837AB"/>
		</linearGradient>
	</defs>
	<rect id="instagram 2" width="38.000000" height="38.000000" fill="#FFFFFF" fill-opacity="0"/>
	<g clip-path="url(#clip122_1450)">
		<path id="Vector" d="M2.375 2.58557C-0.611328 5.68732 0 8.98224 0 18.9921C0 27.3046 -1.45117 35.6376 6.13965 37.5994C8.50977 38.209 29.5117 38.209 31.8779 37.5962C35.0391 36.7808 37.6104 34.2174 37.9619 29.7476C38.0107 29.1238 38.0107 8.8714 37.96 8.23486C37.5859 3.47382 34.6553 0.729858 30.7939 0.174133C29.9092 0.0458984 29.7314 0.00787354 25.1904 0C9.08301 0.00787354 5.55273 -0.709351 2.375 2.58557Z" fill="url(#paint_linear_122_1451_0)" fill-opacity="1.000000" fill-rule="nonzero"/>
		<path id="Vector" d="M18.9971 4.97009C13.248 4.97009 7.78906 4.45868 5.70312 9.81036C4.8418 12.0207 4.9668 14.8912 4.9668 19.0016C4.9668 22.6084 4.85156 25.9984 5.70312 28.1913C7.78418 33.5461 13.2881 33.0331 18.9941 33.0331C24.499 33.0331 30.1758 33.6063 32.2861 28.1913C33.1494 25.9587 33.0225 23.1309 33.0225 19.0016C33.0225 13.5201 33.3252 9.98132 30.666 7.32452C27.9746 4.63281 24.335 4.97009 18.9912 4.97009L18.9971 4.97009ZM17.7402 7.49866C29.7324 7.47968 31.2588 6.14648 30.416 24.6667C30.1172 31.217 25.1299 30.4982 18.999 30.4982C7.82031 30.4982 7.49902 30.1783 7.49902 18.9952C7.49902 7.68231 8.38574 7.505 17.7402 7.49548L17.7402 7.49866ZM26.4863 9.82776C25.5566 9.82776 24.8037 10.5814 24.8037 11.5109C24.8037 12.4402 25.5566 13.1939 26.4863 13.1939C27.416 13.1939 28.1699 12.4402 28.1699 11.5109C28.1699 10.5814 27.416 9.82776 26.4863 9.82776ZM18.9971 11.7958C15.0186 11.7958 11.793 15.0226 11.793 19.0016C11.793 22.9805 15.0186 26.2057 18.9971 26.2057C22.9766 26.2057 26.2002 22.9805 26.2002 19.0016C26.2002 15.0226 22.9766 11.7958 18.9971 11.7958ZM18.9971 14.3244C25.1797 14.3244 25.1885 23.6788 18.9971 23.6788C12.8154 23.6788 12.8066 14.3244 18.9971 14.3244Z" fill="#FFFFFF" fill-opacity="1.000000" fill-rule="nonzero"/>
	</g>
</svg>
