<svg width="38.000000" height="38.000000" viewBox="0 0 38 38" fill="none" xmlns="http://www.w3.org/2000/svg" xmlns:xlink="http://www.w3.org/1999/xlink">
	<desc>
			Created with Pixso.
	</desc>
	<defs/>
	<path id="XMLID_11_" d="M38 19C38 29.4934 29.4932 38 19 38C8.50684 38 0 29.4934 0 19C0 8.50659 8.50684 0 19 0C29.4932 0 38 8.50659 38 19Z" fill="#4D76A1" fill-opacity="1.000000" fill-rule="evenodd"/>
	<path id="Vector" d="M18.2822 27.3332L19.7734 27.3332C19.7734 27.3332 20.2246 27.2837 20.4541 27.0358C20.666 26.8082 20.6592 26.3807 20.6592 26.3807C20.6592 26.3807 20.6299 24.3798 21.5586 24.0851C22.4746 23.7949 23.6494 26.019 24.8955 26.8743C25.8379 27.5215 26.5537 27.3796 26.5537 27.3796L29.8857 27.3332C29.8857 27.3332 31.6289 27.2258 30.8027 25.8555C30.7344 25.7433 30.3213 24.8417 28.3252 22.9891C26.2363 21.05 26.5156 21.3637 29.0322 18.0096C30.5645 15.967 31.1777 14.7199 30.9863 14.1858C30.8037 13.6771 29.6768 13.8115 29.6768 13.8115L25.9248 13.8349C25.9248 13.8349 25.6475 13.7969 25.4404 13.9202C25.2393 14.0411 25.1094 14.3229 25.1094 14.3229C25.1094 14.3229 24.5156 15.9036 23.7236 17.2479C22.0537 20.0845 21.3857 20.2342 21.1123 20.058C20.4775 19.6475 20.6357 18.4089 20.6357 17.529C20.6357 14.7802 21.0527 13.634 19.8242 13.3373C19.416 13.2388 19.1162 13.1738 18.0732 13.1633C16.7354 13.1494 15.6025 13.1674 14.9609 13.4816C14.5342 13.6906 14.2051 14.1563 14.4053 14.183C14.6533 14.2162 15.2148 14.3345 15.5127 14.7399C15.8965 15.2628 15.8828 16.4374 15.8828 16.4374C15.8828 16.4374 16.1045 19.6733 15.3672 20.0753C14.8613 20.351 14.168 19.7881 12.6787 17.2147C11.916 15.8965 11.3398 14.4395 11.3398 14.4395C11.3398 14.4395 11.2285 14.1672 11.0303 14.0215C10.79 13.845 10.4541 13.7888 10.4541 13.7888L6.88965 13.8122C6.88965 13.8122 6.35449 13.8271 6.15723 14.0598C5.98242 14.2667 6.14355 14.6948 6.14355 14.6948C6.14355 14.6948 8.93457 21.2242 12.0947 24.5146C14.9922 27.5313 18.2822 27.3332 18.2822 27.3332Z" fill="#FFFFFF" fill-opacity="1.000000" fill-rule="evenodd"/>
</svg>
