<svg width="38.000000" height="38.000000" viewBox="0 0 38 38" fill="none" xmlns="http://www.w3.org/2000/svg" xmlns:xlink="http://www.w3.org/1999/xlink">
	<desc>
			Created with Pixso.
	</desc>
	<defs>
		<clipPath id="clip122_1457">
			<rect id="whatsapp (1) 1" width="38.000000" height="38.000000" fill="white" fill-opacity="0"/>
		</clipPath>
	</defs>
	<rect id="whatsapp (1) 1" width="38.000000" height="38.000000" fill="#FFFFFF" fill-opacity="0"/>
	<g clip-path="url(#clip122_1457)">
		<path id="Vector" d="M18.9902 0.0100098C8.50293 0.0122681 0.00292969 8.51562 0.00488281 19.0029C0.00585938 22.6342 1.04785 26.1892 3.00781 29.2464L0.0537109 36.9116C-0.104492 37.3192 0.0986328 37.7773 0.506836 37.9346C0.597656 37.9697 0.694336 37.9878 0.791992 37.9876C0.882812 37.988 0.972656 37.9725 1.05762 37.9417L8.96973 35.1171C17.8721 40.6613 29.583 37.9393 35.127 29.0374C40.6709 20.1354 37.9492 8.42462 29.0469 2.88049C26.0293 1.0011 22.5449 0.00653076 18.9902 0.0100098Z" fill="#55CD6C" fill-opacity="1.000000" fill-rule="nonzero"/>
		<path id="Vector" d="M28.043 22.2442C28.043 22.2442 26.1045 21.2948 24.8906 20.6619C23.5166 19.9545 21.9033 21.279 21.1436 22.0322C19.9609 21.5781 18.8818 20.8928 17.9678 20.0162C17.0908 19.1023 16.4053 18.0226 15.9512 16.8403C16.7051 16.0792 18.0264 14.4668 17.3223 13.0933C16.6973 11.878 15.7393 9.94116 15.7393 9.93958C15.6055 9.67297 15.332 9.5047 15.0342 9.50439L13.4512 9.50439C11.1465 9.9024 9.47168 11.9131 9.49512 14.2516C9.49512 16.7359 14.4736 23.5149 14.4736 23.5149C14.4736 23.5149 21.251 28.4932 23.7373 28.4932C26.0752 28.5172 28.0859 26.8416 28.4844 24.5372L28.4844 22.9548C28.4844 22.6531 28.3135 22.3775 28.043 22.2442Z" fill="#FAFAFA" fill-opacity="1.000000" fill-rule="nonzero"/>
	</g>
</svg>
