<svg width="140" height="243" viewBox="0 0 140 243" fill="none" xmlns="http://www.w3.org/2000/svg">
<path opacity="0.27" d="M91.456 110.127L91.317 110.607C99.6886 113.031 107.501 117.08 114.307 122.523C121.114 127.966 126.781 134.697 130.986 142.331L130.987 142.333C139.623 157.899 141.795 176.236 137.032 193.389L137.032 193.391C129.087 222.306 102.972 242.496 73.534 242.496C73.494 242.496 73.4535 242.495 73.4037 242.493L73.4013 242.493C73.3571 242.492 73.3055 242.49 73.2514 242.49C49.3487 241.538 30.816 232.04 18.1087 214.274C6.74061 198.379 1.7138 177.773 0.697948 156.889C-0.317671 136.009 2.67837 114.897 7.31217 98.0325L7.31218 98.0324C15.2089 69.2766 28.5095 44.877 44.5375 27.6755C60.5689 10.4702 79.2932 0.5 98.0499 0.5C100.388 0.500444 102.723 0.661521 105.039 0.982095C106.033 1.12432 106.985 1.47903 107.829 2.02207C108.674 2.56528 109.392 3.28416 109.934 4.12979L109.934 4.13028C110.485 4.98647 110.848 5.94892 111.002 6.95498C111.156 7.96105 111.096 8.98818 110.826 9.96952L103.926 35.0895L103.925 35.092C103.571 36.4071 102.843 37.5913 101.83 38.5013C100.817 39.411 99.5617 40.0076 98.2165 40.2189C82.2227 42.6402 70.2682 54.59 61.5094 68.9129C52.7441 83.2462 47.1204 100.049 43.8181 112.359L43.5481 113.366L44.5023 112.947C52.7053 109.341 61.572 107.491 70.5326 107.516C77.5712 107.552 84.5686 108.592 91.313 110.606L91.456 110.127Z" fill="#9EB6D2" stroke="black"/>
</svg>
